<mxfile host="app.diagrams.net" modified="2021-10-26T03:18:35.738Z" agent="5.0 (Macintosh; Intel Mac OS X 10_15_6) AppleWebKit/537.36 (KHTML, like Gecko) Chrome/93.0.4577.82 Safari/537.36" etag="7nyj93_7EFNUnI6Vo5cc" version="15.5.9" type="github" pages="2">
  <diagram id="dX4XTRBZ6Wp5YaVVU2Ya" name="数据结构">
    <mxGraphModel dx="1186" dy="591" grid="1" gridSize="10" guides="1" tooltips="1" connect="1" arrows="1" fold="1" page="1" pageScale="1" pageWidth="850" pageHeight="1100" math="0" shadow="0">
      <root>
        <mxCell id="0" />
        <mxCell id="1" parent="0" />
      </root>
    </mxGraphModel>
  </diagram>
  <diagram id="AMXsBEy4Hzp0RpmcD2q5" name="流程图">
    <mxGraphModel dx="1186" dy="591" grid="1" gridSize="10" guides="1" tooltips="1" connect="1" arrows="1" fold="1" page="1" pageScale="1" pageWidth="850" pageHeight="1100" math="0" shadow="0">
      <root>
        <mxCell id="4Cw7LiL7mhugTLYvkbFe-0" />
        <mxCell id="4Cw7LiL7mhugTLYvkbFe-1" parent="4Cw7LiL7mhugTLYvkbFe-0" />
      </root>
    </mxGraphModel>
  </diagram>
</mxfile>
